PathFileType	4	(X/Y/Z)	D:\TRACE\spot_10-12-23\spot_body_motion_2_3-v60.trc
DataRate	CameraRate	NumFrames	NumMarkers	Units	OrigDataRate	OrigDataStartFrame	OrigNumFrames
100.00	100.00	      31	9	mm	100.00	5251	      7000
Frame#	Time	front left toe			Front right toe			aft left toe			aft right toe			Arm			FL body			FR body			AL Body			AR Body			
		X1	Y1	Z1	X2	Y2	Z2	X3	Y3	Z3	X4	Y4	Z4	X5	Y5	Z5	X6	Y6	Z6	X7	Y7	Z7	X8	Y8	Z8	X9	Y9	Z9	

5251	52.500	-122.66271	18.31418	-24.80335	384.88589	30.48554	88.28094	-284.65359	59.39867	442.54605	255.48241	56.12246	501.65100	168.94089	813.51160	-158.71640	77.83528	552.81757	-146.47939	227.40456	557.29205	-114.00086	-112.47910	605.75049	716.50098	34.18342	604.23553	749.85767	
5252	52.510	-121.39623	18.05755	-24.50082	385.76031	30.20866	88.06820	-283.83749	58.83620	442.63193	256.54395	55.78264	501.94818	171.25755	813.05652	-160.77391	79.93595	552.60950	-148.10271	228.95041	557.08313	-116.21901	-110.38079	605.75116	714.17786	36.31203	604.63055	748.38318	
5253	52.520	-120.93102	18.47131	-24.46709	387.35172	30.42810	88.23582	-282.89029	58.05845	442.86697	257.09134	55.18053	502.12091	173.80536	812.49164	-162.63918	82.17297	552.15015	-149.80774	231.78409	555.97900	-117.73311	-107.98753	606.43365	712.57660	38.54822	604.68604	746.53790	
5254	52.530	-119.85726	18.55206	-24.44532	387.84335	30.26397	87.90275	-282.41074	57.13945	443.44275	258.30438	54.80238	502.32919	176.55788	812.01385	-164.88371	84.47004	551.72144	-151.74115	234.27454	555.21045	-118.78046	-105.39893	606.88257	710.27411	40.79246	604.99072	744.19092	
5255	52.540	-118.58928	17.97744	-23.54707	387.59970	29.77475	86.74483	-282.29901	55.70194	443.77600	353.02106	118.02589	557.28815	179.72212	811.46582	-166.85297	87.07511	551.44788	-153.86626	237.14102	554.35675	-120.31418	-102.83876	607.03235	708.15240	44.25123	603.34790	743.99524	
5256	52.550	-117.18431	18.02631	-25.43625	388.77521	27.90274	86.03693	-284.90335	58.95589	440.59088	260.58124	52.99605	502.81616	183.47856	810.95453	-168.88974	90.00864	551.50916	-156.04282	238.48155	555.41150	-125.05039	-99.85245	606.82629	706.52448	45.95217	604.34644	739.99731	
5257	52.560	-116.04727	18.92203	-25.00860	389.87021	27.86888	86.41313	-289.64221	67.19778	443.94455	191.76004	783.77197	-192.35715	187.26039	811.04547	-171.02623	93.02279	551.74188	-158.37993	242.18530	555.29517	-126.60615	-98.20133	605.68213	703.28058	48.63493	603.37823	737.74774	
5258	52.570	-113.77520	18.42693	-25.46198	392.99323	29.08477	87.03200	-279.17310	76.03757	455.13339	194.72928	784.45538	-193.86023	189.96886	811.72974	-172.92744	96.50700	552.06195	-160.98470	245.94069	555.58368	-128.27052	-95.96544	604.15338	700.69598	51.98899	601.98010	735.44360	
5259	52.580	-112.16611	18.95845	-25.94041	392.11691	28.26697	86.89882	-283.21426	86.85641	460.50363	263.91522	50.80580	503.32489	192.07835	812.32953	-175.10683	99.79919	551.63544	-163.25803	248.06685	556.42853	-131.69731	-93.82574	603.45270	698.45050	52.93146	602.04700	733.06830	
5260	52.590	-111.20067	18.74284	-25.42615	393.75595	27.25966	87.03889	-274.58347	99.96606	460.48773	265.29202	49.89459	502.83041	194.47780	812.38580	-176.70633	102.33581	551.02783	-165.09691	251.13745	555.31836	-132.88252	-90.96865	603.66547	696.38922	54.88461	602.21008	731.03400	
5261	52.600	-110.49078	18.71706	-25.04640	395.20947	26.83708	87.18311	-278.53281	113.41631	451.18411	170.37463	588.73254	466.42319	196.82101	811.36932	-179.26147	104.40856	549.93683	-166.96587	253.39890	553.94495	-134.73660	-88.32998	603.94977	694.55499	58.26545	601.52777	730.01953	
5262	52.610	-109.47050	18.97634	-24.75964	396.64587	26.58018	87.05762	-271.23795	126.76094	442.07532	268.12778	48.46718	503.34555	199.43971	809.53638	-181.31357	106.22131	549.66248	-168.66768	255.04723	553.88397	-136.70236	-85.36115	603.98047	693.42676	60.91853	602.34344	727.45819	
5263	52.620	-108.28928	19.08333	-24.78915	397.01340	26.57941	87.28439	-268.12393	139.02670	436.28180	144.54970	731.91498	63.16231	201.72319	808.25037	-183.30475	108.22816	549.11786	-170.48141	257.30194	553.16992	-138.35672	-82.95057	603.55951	691.65558	63.05579	601.72046	725.55017	
5264	52.630	-107.44340	19.06496	-24.68231	398.45245	26.60165	87.33885	-263.51926	146.63367	436.71207	146.01566	731.50110	60.94515	203.46735	808.03345	-185.19411	110.24101	548.63379	-172.05959	259.06137	553.28204	-140.57587	-80.61382	602.95300	690.04352	65.60340	601.09937	723.85846	
5265	52.640	-106.12492	19.09614	-24.45846	399.49915	26.53649	87.57217	-257.22198	155.41080	440.46347	271.97748	45.11784	503.59238	204.83469	808.16553	-186.91272	111.97194	548.40875	-174.01123	261.22562	552.29755	-142.00941	-78.69264	602.24493	688.10364	67.68835	600.38538	722.25024	
5266	52.650	-104.86274	19.04093	-24.29276	401.24890	26.70546	87.97003	-256.41379	162.47414	442.39316	273.06781	44.46524	503.88840	206.73654	808.16187	-188.13596	113.76099	548.06091	-175.64058	262.81155	551.87476	-143.81895	-76.91185	601.82941	686.61090	69.76545	599.98816	720.69440	
5267	52.660	-104.52246	19.58047	-24.10419	401.98892	26.32474	88.01297	-251.42082	169.71214	442.23608	273.94379	43.82565	503.99500	208.20670	807.88275	-189.55234	115.60308	547.49084	-177.04523	264.39337	551.95178	-145.69144	-74.96706	601.44403	684.97650	71.99960	599.40552	719.26025	
5268	52.670	-102.86623	19.25459	-23.89358	403.46423	26.34671	88.24278	-250.30875	177.41850	437.81143	274.76199	42.76386	504.40872	209.87604	807.39813	-191.23541	117.12019	547.07178	-178.40047	266.24362	550.76550	-146.44537	-72.61732	601.14648	683.98279	73.88468	598.40680	718.63171	
5269	52.680	-101.04631	18.80090	-23.20664	404.47165	26.14934	88.30232	-245.88860	181.34813	433.47296	275.97488	41.92071	504.56531	211.67461	806.44281	-192.46773	118.25677	546.58038	-179.71999	268.45743	549.28021	-146.19353	-70.89018	601.05194	683.49640	75.70458	598.74646	716.70892	
5270	52.690	-100.82359	19.37526	-23.22479	405.68097	26.17860	88.46787	-241.89951	182.57143	431.09680	277.88928	41.07695	504.74716	213.36885	805.91187	-194.00366	119.90549	546.27393	-180.98856	269.00311	549.91089	-149.14821	-68.97950	600.79810	681.78430	77.57067	598.62048	715.57544	
5271	52.700	-99.41249	19.30876	-23.04878	406.30017	25.67961	88.51359	-237.45671	180.48598	430.43988	279.27411	39.40913	505.14142	214.88890	805.42090	-194.97517	121.31580	545.96887	-182.08125	270.52335	549.56616	-150.34651	-67.17190	600.12415	680.66919	79.16608	598.12115	714.31024	
5272	52.710	-97.76069	18.98917	-22.80605	407.70685	25.72044	88.88309	-232.71353	177.71721	430.66483	280.01730	38.89741	505.79861	216.09201	805.43579	-195.99443	122.96062	545.88800	-183.02789	271.95584	549.43628	-151.47914	-65.96977	599.67584	679.89240	80.54706	597.59918	713.35809	
5273	52.720	-97.76848	19.87285	-22.67722	408.57031	25.73113	88.97630	-229.62189	175.34520	429.78470	280.72275	38.22184	505.93893	217.42645	805.46130	-196.71532	124.47546	545.64832	-184.07237	273.59180	549.34296	-152.65376	-64.72654	598.81848	678.81787	81.68863	596.92493	712.31140	
5274	52.730	-95.53193	19.15692	-22.49487	409.85507	25.92890	89.38434	-224.12708	174.52307	428.54749	281.62335	37.09932	506.06104	218.44373	805.48004	-197.60498	126.06908	545.47479	-185.25240	274.70224	549.93353	-154.09671	-63.27798	597.85486	677.43341	83.05784	596.17578	711.33600	
5275	52.740	-93.95683	19.17574	-22.37391	413.26315	27.41352	90.08842	-221.82161	174.65173	426.50610	283.26672	36.30498	506.08945	219.93153	805.36115	-198.30743	127.52845	545.22021	-186.21980	276.24850	549.22827	-154.53798	-62.22625	597.45129	676.48425	84.22684	594.80267	711.08551	
5276	52.750	-93.15011	19.33831	-22.07030	414.30914	27.00123	90.44733	-217.36487	174.66980	424.99268	284.10205	35.33532	506.61331	221.34210	804.97925	-198.90916	128.44745	544.98810	-187.05792	278.49203	548.49420	-154.82880	-61.15545	596.67108	676.16943	85.42863	594.61212	709.56445	
5277	52.760	-91.86402	19.14751	-21.75467	414.61414	26.86168	90.47370	-213.72920	174.48399	423.67361	285.33710	34.38013	506.80484	222.49615	804.62000	-199.73106	129.76772	544.65265	-187.80821	279.18295	548.15039	-155.62474	-59.65300	595.81378	674.71143	86.22707	593.87299	708.69440	
5278	52.770	-91.55632	19.80472	-21.50915	415.64551	26.43321	90.69782	-210.02921	173.68872	422.32492	286.79605	33.29463	506.88821	223.90892	804.19489	-200.47224	130.96744	544.13696	-188.70551	280.76773	547.41748	-156.34392	-58.76898	595.20819	674.14136	87.79574	593.22180	707.97949	
5279	52.780	-89.62196	19.52338	-20.96830	417.12094	26.48911	90.65267	-205.45303	170.74953	421.38657	287.73059	32.44937	507.08160	225.04219	803.66211	-200.99240	131.96098	543.73871	-189.43837	281.38904	547.49774	-157.33568	-57.54948	594.89355	673.05219	88.56771	592.80927	707.22552	
5280	52.790	-88.61043	19.42732	-20.63312	417.18298	25.33303	91.22339	-202.16370	164.50957	419.36954	288.69571	31.57518	507.48862	226.11775	803.14209	-201.89607	133.00491	543.14691	-189.93135	282.90555	546.59943	-157.90700	-56.57211	594.62897	673.21179	90.00814	592.61798	706.56085	
5281	52.800	-87.99916	19.67006	-20.50654	418.14661	25.24207	91.21666	-197.92229	156.27902	417.43396	289.63531	30.41368	507.80206	226.62837	802.60297	-202.47980	134.37039	542.42883	-190.50070	283.09305	546.44305	-158.72125	-55.07611	593.87018	672.03687	91.17448	591.55725	706.90497	
